<svg width="169" height="30" viewBox="0 0 169 30" fill="none" xmlns="http://www.w3.org/2000/svg"><path fill-rule="evenodd" clip-rule="evenodd" d="M2.95441 9.41047C4.47963 9.89134 5.37142 9.65921 6.72265 8.80546C4.94869 9.21244 4.06871 9.21244 2.34764 8.68655C1.01302 6.86013 0.948754 4.75218 2.86348 2.2167C4.24269 3.15002 5.31852 4.38716 6.69774 5.32048C17.4333 -5.03039 21.842 14.4062 12.7685 14.2559C7.54057 14.1684 9.81113 9.2037 11.4452 6.53795C11.5847 6.31063 11.7433 6.06976 11.9068 5.83064L11.902 13.5385C12.3217 13.5993 12.7461 13.6209 13.1698 13.6032V3.95176L12.8524 4.25427C12.9442 4.17864 12.994 4.14848 13.0111 4.15504C13.0701 4.02651 12.8292 4.23853 12.031 5.03415L11.9873 5.0748L11.9143 5.14824L11.8981 5.16442C11.6655 5.39742 11.3901 5.67589 11.0675 6.00462C8.07345 9.06206 6.57796 15.4668 12.702 15.4908C13.8526 15.4952 15.0036 15.0537 16.1267 14.3254C16.2665 14.2218 16.7124 13.7942 16.9931 13.5276C19.4285 15.1052 20.8942 17.6901 20.8942 20.6072C20.8942 25.2323 17.1439 28.9817 12.5197 28.9817C11.2431 28.9829 9.98323 28.6917 8.83665 28.1304C7.69007 27.5692 6.68728 26.7527 5.90518 25.7438C6.7674 26.9406 7.90192 27.9151 9.21508 28.587C10.5282 29.2588 11.9824 29.6087 13.4574 29.6077C18.5988 29.6077 22.7687 25.4386 22.7687 20.2964C22.7695 18.6443 22.3304 17.0217 21.4965 15.5955C20.6626 14.1693 19.464 12.9908 18.0239 12.1811C17.9895 12.2415 17.9544 12.3015 17.9185 12.3612C20.336 8.34776 18.4659 2.24162 13.2694 1.5483C10.862 1.22699 8.93202 2.32512 6.58539 4.2241L3.69494 1.5601C3.77076 1.41009 3.81001 1.24426 3.80948 1.07618C3.80932 0.904296 3.76804 0.734949 3.68907 0.582281C3.61011 0.429614 3.49575 0.29806 3.35557 0.19861C3.21538 0.0991607 3.05343 0.0347041 2.88324 0.0106237C2.71306 -0.0134568 2.53958 0.00353903 2.37731 0.0601914C2.21503 0.116844 2.06867 0.211508 1.95045 0.336274C1.83223 0.461041 1.74558 0.612287 1.69775 0.777377C1.64991 0.942467 1.64228 1.11661 1.67549 1.28525C1.7087 1.45389 1.78178 1.61214 1.88863 1.74677C-3.00747 7.81268 2.61474 10.7158 7.42734 12.5007C5.61841 11.5752 4.091 10.5803 3.02392 9.48216M17.919 12.3612C17.7105 12.707 17.8158 12.5326 17.919 12.3612V12.3612ZM13.1693 16.1146V26.3833H11.9016V16.0591C12.3193 16.1383 12.7463 16.157 13.1693 16.1146ZM8.00351 5.26015C8.15411 5.25989 8.3014 5.30432 8.42675 5.38781C8.55209 5.4713 8.64984 5.5901 8.70763 5.72917C8.76542 5.86825 8.78066 6.02134 8.7514 6.16907C8.72215 6.3168 8.64972 6.45254 8.54329 6.55909C8.43686 6.66564 8.30122 6.73823 8.15351 6.76765C8.00582 6.79707 7.85271 6.78202 7.71357 6.72438C7.57443 6.66675 7.45552 6.56913 7.37188 6.44389C7.28825 6.31864 7.24365 6.1714 7.24374 6.0208C7.24397 5.81929 7.32406 5.62608 7.46647 5.48351C7.60888 5.34093 7.802 5.26062 8.00351 5.26015Z" fill="white"></path><path fill-rule="evenodd" clip-rule="evenodd" d="M12.5962 27.7015C11.5517 27.9914 10.4397 27.918 9.44243 27.4932C8.44513 27.0685 7.62167 26.3176 7.107 25.3635C6.59232 24.4095 6.41695 23.309 6.60961 22.2423C6.80228 21.1755 7.35155 20.2059 8.16743 19.4922C7.61692 20.2721 7.29134 21.1883 7.22625 22.1408C7.16117 23.0932 7.35909 24.0452 7.79839 24.8927C8.2377 25.7403 8.90148 26.4508 9.71723 26.9467C10.533 27.4426 11.4693 27.7047 12.424 27.7045C12.4804 27.7045 12.5381 27.7028 12.5962 27.7015Z" fill="white"></path><path d="M41.2921 14.9632C41.9298 15.107 42.4185 15.3653 42.7582 15.738C43.0979 16.1108 43.2692 16.6403 43.2721 17.3267C43.2851 17.7933 43.1795 18.2555 42.9651 18.6702C42.7666 19.0375 42.479 19.3491 42.1286 19.5763C41.7429 19.8195 41.3163 19.991 40.8695 20.0823C40.3578 20.1929 39.8356 20.2471 39.3121 20.2441H34.5861V9.61719H39.053C41.6617 9.61719 42.966 10.5792 42.966 12.5033C42.9721 12.835 42.9308 13.1658 42.8434 13.4859C42.7727 13.739 42.6586 13.9779 42.506 14.1919C42.3641 14.3852 42.1838 14.5471 41.9764 14.6676C41.7612 14.7935 41.5314 14.8928 41.2921 14.9632ZM36.8573 11.572V14.0285H39.1443C39.6249 14.0285 40.0112 13.9438 40.3034 13.7746C40.5956 13.6053 40.7405 13.2957 40.7382 12.8459C40.7382 12.3862 40.595 12.0589 40.3086 11.8641C40.0223 11.6693 39.6025 11.572 39.0495 11.572H36.8573ZM36.8573 18.2963H39.3139C39.8768 18.2963 40.304 18.2015 40.5956 18.0119C40.8872 17.8224 41.0321 17.4974 41.0304 17.0371C41.0368 16.8657 41.0066 16.6948 40.9416 16.536C40.8767 16.3772 40.7786 16.2341 40.6538 16.1163C40.4034 15.8803 39.9608 15.7627 39.326 15.7632H36.8573V18.2963Z" fill="white"></path><path d="M49.1234 20.2441V9.61719H51.3955V20.2406L49.1234 20.2441Z" fill="white"></path><path d="M64.9511 9.61719H67.1615V20.2406H65.1502L60.0077 13.5015V20.2406H57.7972V9.61719H59.8077L64.9511 16.3719V9.61719Z" fill="white"></path><path d="M72.9484 14.9217C72.9401 14.1705 73.0677 13.424 73.325 12.7182C73.5619 12.0668 73.9362 11.474 74.4223 10.98C74.9237 10.4805 75.5254 10.0932 76.1876 9.84344C76.9483 9.56068 77.7552 9.42267 78.5667 9.43649H78.5823C79.3071 9.43038 80.0288 9.53147 80.724 9.73649C81.3716 9.92954 81.9664 10.268 82.4632 10.726L81.2206 12.4304C80.5342 11.8472 79.6539 11.5556 78.5797 11.5556H78.5641C78.0788 11.547 77.5965 11.6329 77.1441 11.8086C76.7488 11.9644 76.3907 12.2014 76.0928 12.5043C75.8028 12.8072 75.5806 13.1682 75.4406 13.5634C75.288 13.9974 75.2126 14.4547 75.218 14.9147V14.9295C75.2133 15.3843 75.2887 15.8364 75.4406 16.2651C75.5798 16.6595 75.7962 17.0223 76.0771 17.3321C76.3608 17.6391 76.7064 17.8824 77.091 18.046C77.5182 18.2255 77.9781 18.3144 78.4414 18.3069H78.4571C79.071 18.3069 79.598 18.197 80.038 17.9773C80.478 17.7576 80.7542 17.453 80.8667 17.0634V16.4956H78.6128V14.6695H82.7423V20.2425H81.3458L81.2536 19.1677C80.9491 19.5932 80.5278 19.9213 80.0406 20.1121C79.4731 20.3317 78.8681 20.4383 78.2597 20.426H78.2484C77.492 20.4376 76.7408 20.2996 76.038 20.0199C75.4073 19.7654 74.839 19.3777 74.3719 18.8834C73.9065 18.3815 73.5487 17.7897 73.3206 17.1443C73.0688 16.4348 72.944 15.6866 72.9519 14.9338L72.9484 14.9217Z" fill="white"></path><path d="M88.131 14.9317V14.9213C88.1232 14.168 88.2504 13.4193 88.5066 12.7109C88.7396 12.0607 89.1087 11.4678 89.5892 10.9717C90.0768 10.4787 90.6624 10.0936 91.3083 9.84131C92.0375 9.56011 92.8139 9.42195 93.5953 9.43436H93.6109C94.3933 9.42237 95.1706 9.56112 95.9005 9.84305C96.5462 10.0957 97.1318 10.4808 97.6196 10.9735C98.0996 11.4698 98.4684 12.0626 98.7013 12.7126C98.9582 13.4209 99.0858 14.1696 99.0778 14.923V14.9378C99.0871 15.6939 98.9596 16.4454 98.7013 17.156C98.4677 17.8073 98.0967 18.4007 97.6134 18.8959C97.1301 19.391 96.5459 19.7763 95.9005 20.0256C95.1709 20.306 94.3942 20.4439 93.6127 20.4317H93.597C92.8157 20.4439 92.0394 20.306 91.3101 20.0256C90.6646 19.7762 90.0804 19.3908 89.597 18.8957C89.1135 18.4006 88.7423 17.8073 88.5084 17.156C88.2495 16.4434 88.1217 15.6898 88.131 14.9317ZM90.4023 14.9317C90.3978 15.3942 90.4731 15.854 90.6249 16.2908C90.7633 16.6879 90.98 17.0531 91.2622 17.3647C91.5418 17.6681 91.8851 17.9056 92.2675 18.0604C92.6895 18.2292 93.1408 18.3125 93.5953 18.3056H93.6109C94.0654 18.3125 94.5167 18.2292 94.9387 18.0604C95.3212 17.9059 95.6646 17.6683 95.944 17.3647C96.2262 17.0531 96.4429 16.6879 96.5813 16.2908C96.7336 15.8541 96.8089 15.3942 96.804 14.9317V14.9213C96.8093 14.4613 96.734 14.0039 96.5813 13.57C96.4414 13.1757 96.2248 12.8131 95.944 12.503C95.6644 12.1997 95.3211 11.9622 94.9387 11.8074C94.5167 11.6386 94.0654 11.5552 93.6109 11.5622H93.5953C93.1408 11.5552 92.6895 11.6386 92.2675 11.8074C91.8852 11.9624 91.542 12.1999 91.2622 12.503C90.9814 12.8131 90.7648 13.1757 90.6249 13.57C90.4726 14.004 90.3973 14.4613 90.4023 14.9213V14.9317Z" fill="white"></path><path d="M119.692 14.9632C120.33 15.107 120.819 15.3653 121.159 15.738C121.498 16.1108 121.67 16.6403 121.672 17.3267C121.686 17.7933 121.58 18.2557 121.366 18.6702C121.167 19.0375 120.879 19.3491 120.529 19.5763C120.143 19.8195 119.717 19.991 119.27 20.0823C118.758 20.1929 118.236 20.2471 117.712 20.2441H112.984V9.61719H117.451C120.059 9.61719 121.364 10.5792 121.364 12.5033C121.37 12.835 121.329 13.1658 121.241 13.4859C121.17 13.739 121.056 13.9779 120.904 14.1919C120.762 14.3852 120.582 14.5471 120.374 14.6676C120.16 14.7933 119.931 14.8926 119.692 14.9632ZM115.258 11.572V14.0285H117.545C118.025 14.0285 118.412 13.9438 118.704 13.7746C118.996 13.6053 119.141 13.2957 119.139 12.8459C119.139 12.3862 118.995 12.0589 118.709 11.8641C118.423 11.6693 118.003 11.572 117.45 11.572H115.258ZM115.258 18.2963H117.714C118.277 18.2963 118.704 18.2015 118.996 18.0119C119.288 17.8224 119.432 17.4974 119.431 17.0371C119.437 16.8657 119.407 16.6948 119.342 16.536C119.277 16.3772 119.179 16.2341 119.054 16.1163C118.804 15.8803 118.361 15.7627 117.726 15.7632H115.255L115.258 18.2963Z" fill="white"></path><path d="M126.907 14.9317V14.9213C126.899 14.1679 127.027 13.4192 127.284 12.7109C127.517 12.0609 127.885 11.468 128.365 10.9717C128.853 10.4788 129.439 10.0938 130.085 9.84131C130.815 9.56011 131.591 9.42195 132.372 9.43436H132.388C133.169 9.42212 133.946 9.56028 134.675 9.84131C135.321 10.0936 135.907 10.4787 136.394 10.9717C136.874 11.4682 137.243 12.061 137.477 12.7109C137.733 13.4193 137.86 14.168 137.852 14.9213V14.9361C137.861 15.692 137.734 16.4435 137.477 17.1543C137.24 17.8014 136.871 18.3921 136.394 18.8891C135.908 19.3856 135.322 19.773 134.675 20.0256C133.946 20.3059 133.169 20.4438 132.388 20.4317H132.372C131.591 20.4439 130.815 20.3061 130.085 20.0256C129.44 19.7765 128.855 19.3913 128.372 18.8961C127.888 18.401 127.517 17.8075 127.284 17.156C127.025 16.4435 126.897 15.6898 126.907 14.9317ZM129.179 14.9317C129.174 15.3942 129.25 15.8541 129.402 16.2908C129.54 16.688 129.757 17.0532 130.039 17.3647C130.319 17.6683 130.662 17.9059 131.045 18.0604C131.467 18.2292 131.918 18.3125 132.372 18.3056H132.388C132.843 18.3124 133.294 18.2291 133.716 18.0604C134.098 17.9056 134.442 17.668 134.721 17.3647C135.003 17.0531 135.22 16.6879 135.358 16.2908C135.51 15.854 135.586 15.3942 135.581 14.9317V14.9213C135.586 14.4613 135.511 14.004 135.358 13.57C135.219 13.1757 135.002 12.8131 134.721 12.503C134.441 12.1999 134.098 11.9624 133.716 11.8074C133.294 11.6387 132.843 11.5553 132.388 11.5622H132.372C131.918 11.5552 131.467 11.6386 131.045 11.8074C130.662 11.9622 130.319 12.1997 130.039 12.503C129.758 12.8129 129.542 13.1756 129.402 13.57C129.249 14.0039 129.174 14.4613 129.179 14.9213V14.9317Z" fill="white"></path><path d="M143.031 14.9317V14.9213C143.023 14.168 143.15 13.4193 143.406 12.7109C143.64 12.0609 144.009 11.468 144.489 10.9717C144.976 10.4787 145.562 10.0936 146.208 9.84131C146.937 9.56011 147.714 9.42195 148.495 9.43436H148.511C149.292 9.42203 150.069 9.56019 150.798 9.84131C151.444 10.094 152.03 10.4791 152.517 10.9717C152.997 11.468 153.366 12.0609 153.599 12.7109C153.856 13.4192 153.984 14.1679 153.976 14.9213V14.9361C153.985 15.6921 153.857 16.4436 153.599 17.1543C153.366 17.8056 152.995 18.399 152.511 18.8941C152.028 19.3893 151.444 19.7746 150.798 20.0239C150.069 20.3043 149.292 20.4421 148.511 20.4299H148.495C147.714 20.4421 146.937 20.3043 146.208 20.0239C145.561 19.7713 144.975 19.3839 144.489 18.8873C144.011 18.3906 143.643 17.7998 143.406 17.1526C143.148 16.4409 143.021 15.6886 143.031 14.9317ZM145.303 14.9317C145.298 15.3941 145.373 15.8539 145.524 16.2908C145.663 16.6879 145.88 17.0531 146.162 17.3647C146.441 17.668 146.785 17.9056 147.167 18.0604C147.589 18.2291 148.04 18.3124 148.495 18.3056H148.511C148.965 18.3125 149.416 18.2292 149.838 18.0604C150.221 17.9057 150.565 17.6681 150.844 17.3647C151.126 17.0528 151.343 16.6877 151.481 16.2908C151.633 15.8541 151.709 15.3942 151.704 14.9317V14.9213C151.709 14.4613 151.634 14.0039 151.481 13.57C151.341 13.1759 151.125 12.8134 150.844 12.503C150.564 12.1999 150.221 11.9624 149.838 11.8074C149.416 11.6386 148.965 11.5552 148.511 11.5622H148.495C148.04 11.5553 147.589 11.6387 147.167 11.8074C146.785 11.9624 146.442 12.1999 146.162 12.503C145.881 12.8131 145.664 13.1757 145.524 13.57C145.373 14.0041 145.298 14.4614 145.303 14.9213V14.9317Z" fill="white"></path><path d="M159.758 20.2441V9.61719H162.03V13.9467H163.918L166.513 9.61719H169L165.623 15.1128L169 20.2432H166.497L163.765 16.0824H162.026V20.2432L159.758 20.2441Z" fill="white"></path></svg>